<?xml version="1.0" encoding="UTF-8" standalone="no"?>
<!-- Created with Inkscape (http://www.inkscape.org/) -->

<svg
   width="675.93634"
   height="278.60507"
   id="svg2"
   version="1.1"
   inkscape:version="1.3.2 (091e20e, 2023-11-25, custom)"
   sodipodi:docname="logo-arraw.svg"
   inkscape:export-filename="..\..\..\..\lab\python\blender\Onigiri\Onigiri\icons\light\cs-arraw-output.svg"
   inkscape:export-xdpi="48.661221"
   inkscape:export-ydpi="48.661221"
   xmlns:inkscape="http://www.inkscape.org/namespaces/inkscape"
   xmlns:sodipodi="http://sodipodi.sourceforge.net/DTD/sodipodi-0.dtd"
   xmlns="http://www.w3.org/2000/svg"
   xmlns:svg="http://www.w3.org/2000/svg"
   xmlns:rdf="http://www.w3.org/1999/02/22-rdf-syntax-ns#"
   xmlns:cc="http://creativecommons.org/ns#"
   xmlns:dc="http://purl.org/dc/elements/1.1/">
  <defs
     id="defs4">
    <filter
       style="color-interpolation-filters:sRGB"
       inkscape:label="Drop Shadow"
       id="filter4290-5"
       x="-0.065291799"
       y="-0.054882374"
       width="1.1819748"
       height="1.1529757">
      <feFlood
         flood-opacity="0.498039"
         flood-color="rgb(0,0,0)"
         result="flood"
         id="feFlood4292-67" />
      <feComposite
         in="flood"
         in2="SourceGraphic"
         operator="out"
         result="composite1"
         id="feComposite4294-6" />
      <feGaussianBlur
         in="composite1"
         stdDeviation="3"
         result="blur"
         id="feGaussianBlur4296-8" />
      <feOffset
         dx="6"
         dy="6"
         result="offset"
         id="feOffset4298-5" />
      <feComposite
         in="offset"
         in2="SourceGraphic"
         operator="atop"
         result="composite2"
         id="feComposite4300-8" />
    </filter>
    <filter
       style="color-interpolation-filters:sRGB"
       inkscape:label="Drop Shadow"
       id="filter4290-4-8"
       x="-0.039119563"
       y="-0.033156847"
       width="1.1087221"
       height="1.0921501">
      <feFlood
         flood-opacity="0.498039"
         flood-color="rgb(0,0,0)"
         result="flood"
         id="feFlood4292-6-0" />
      <feComposite
         in="flood"
         in2="SourceGraphic"
         operator="out"
         result="composite1"
         id="feComposite4294-2-1" />
      <feGaussianBlur
         in="composite1"
         stdDeviation="3"
         result="blur"
         id="feGaussianBlur4296-4-3" />
      <feOffset
         dx="6"
         dy="6"
         result="offset"
         id="feOffset4298-4-7" />
      <feComposite
         in="offset"
         in2="SourceGraphic"
         operator="atop"
         result="composite2"
         id="feComposite4300-9-5" />
    </filter>
  </defs>
  <sodipodi:namedview
     id="base"
     pagecolor="#ffffff"
     bordercolor="#666666"
     borderopacity="1.0"
     inkscape:pageopacity="0.0"
     inkscape:pageshadow="2"
     inkscape:zoom="0.97542852"
     inkscape:cx="672.52493"
     inkscape:cy="63.561808"
     inkscape:document-units="px"
     inkscape:current-layer="g4428"
     showgrid="false"
     fit-margin-top="0"
     fit-margin-left="0"
     fit-margin-right="0"
     fit-margin-bottom="0"
     inkscape:window-width="1920"
     inkscape:window-height="1027"
     inkscape:window-x="-8"
     inkscape:window-y="-8"
     inkscape:window-maximized="1"
     inkscape:snap-bbox="true"
     inkscape:bbox-paths="true"
     inkscape:snap-grids="true"
     showguides="true"
     inkscape:showpageshadow="2"
     inkscape:pagecheckerboard="0"
     inkscape:deskcolor="#d1d1d1">
    <inkscape:grid
       type="xygrid"
       id="grid3018"
       empspacing="5"
       visible="false"
       enabled="true"
       snapvisiblegridlinesonly="true"
       originx="-37.663918"
       originy="14.303305"
       spacingy="1"
       spacingx="1"
       units="px" />
  </sodipodi:namedview>
  <metadata
     id="metadata7">
    <rdf:RDF>
      <cc:Work
         rdf:about="">
        <dc:format>image/svg+xml</dc:format>
        <dc:type
           rdf:resource="http://purl.org/dc/dcmitype/StillImage" />
        <dc:title />
      </cc:Work>
    </rdf:RDF>
  </metadata>
  <g
     inkscape:label="Layer 1"
     inkscape:groupmode="layer"
     id="layer1"
     transform="translate(-52.26152,-3.9392676)">
    <g
       id="g4428"
       transform="translate(21.428572)">
      <path
         inkscape:export-ydpi="20.63209"
         inkscape:export-xdpi="20.63209"
         inkscape:export-filename="W:\home\art\creativesolution\icon-16.png"
         sodipodi:nodetypes="ccccsssssscccsssascccssssasssss"
         inkscape:connector-curvature="0"
         id="path3092-8-1-6"
         d="m 133.50011,29.753777 c -9.83419,0.40913 -11.5534,0.58734 -28.53076,-1.71497 6.12061,21.197724 43.7921,25.607464 43.7921,25.607464 -26.24365,10.58142 -35.77587,45.58158 -36.12065,62.386199 0,61.44408 38.78051,90.41086 79.07686,90.41086 h 55.22817 c 17.93759,0 17.32768,-32.19867 -1.10564,-32.19867 H 200.5372 c -41.99363,0 -60.2142,-24.6687 -59.04345,-58.52626 1.02163,-29.545379 16.51155,-56.248639 59.04345,-56.439979 l 83.9609,-0.37774 c -11.65392,-20.88964 -30.44472,-31.376294 -41.56807,-29.916124 -37.19643,0.70342 -74.71565,-0.59236 -109.42992,0.76922 z m 67.20005,44.364574 c -29.41206,0.13249 -45.99329,17.03578 -46.01137,41.599699 -0.0168,22.49193 16.29909,42.28074 44.30881,42.28074 h 40.3101 c 26.19262,0 37.08655,15.43975 36.98047,33.59073 -0.0954,16.31677 -7.40074,29.67153 -33.59341,29.67153 h -83.12073 c -22.93153,-1.19234 -39.45061,19.94551 -45.54363,39.00702 13.31419,-5.08588 24.26423,-6.36843 36.86446,-6.36843 h 98.39753 c 20.14818,0 52.50893,-13.48978 52.50893,-62.645 0,-49.15529 -30.82766,-62.91248 -50.97577,-62.97726 l -58.7268,-0.18885 c -4.57742,-0.0148 -8.50134,-6.85817 -8.40908,-12.01358 0.0886,-4.95141 4.22918,-11.12282 8.48204,-11.14023 l 92.32639,-0.37775 c 13.57009,-0.0554 15.1602,-30.884679 0,-30.816329 z"
         style="color:#000000;display:inline;overflow:visible;visibility:visible;opacity:0.99;fill:#9a1d19;fill-opacity:1;fill-rule:nonzero;stroke:#717171;stroke-width:1;stroke-linecap:round;stroke-linejoin:round;stroke-miterlimit:4;stroke-dasharray:none;stroke-dashoffset:0;stroke-opacity:1;marker:none;marker-start:none;filter:url(#filter4290-4-8);enable-background:accumulate" />
      <path
         sodipodi:nodetypes="ccccccccccccccc"
         inkscape:connector-curvature="0"
         id="path3003-5-8"
         d="m 387.35649,254.58848 c 16.83076,-4.20769 16.83076,-29.45383 0,-33.66152 h -50.49227 c -0.51431,-13.42453 -0.0509,-28.65236 0,-42.07689 h 46.28458 c 21.03845,0 21.03845,-33.66152 0,-33.66152 h -46.28458 v -37.86921 h 46.28458 c 21.03845,0 21.03845,-33.661529 0,-33.661529 h -80.58259 c 9.00783,22.3885 -2.63694,40.246979 -19.31853,40.141259 l 0.024,10.07624 c 47.88212,24.01819 43.36684,111.16862 7.30796,130.71317 z"
         style="fill:#87aade;fill-opacity:1;stroke:#828282;stroke-width:0.84125;stroke-linecap:butt;stroke-linejoin:miter;stroke-miterlimit:4;stroke-dasharray:none;stroke-opacity:1;filter:url(#filter4290-5)" />
      <path
         sodipodi:nodetypes="ccccccccccccccccccc"
         inkscape:connector-curvature="0"
         id="path3005-3-5"
         d="m 404.18725,73.657811 c 12.62307,21.03845 0,42.076909 -21.03845,42.076909 v 21.03845 c 33.66152,0 33.66152,50.49228 0,50.49228 v 25.24614 h 42.37745 V 166.8281 h 24.94559 c 5.53449,0.61156 10.93999,-0.6011 16.83076,7.81428 l 29.45382,37.86921 h 43.27909 L 496.75642,157.82413 C 534.62563,140.99337 518.69652,82.073191 485.035,73.657811 Z m 20.96709,21.14315 33.73288,-0.0531 c 25.24613,-0.0516 25.24613,50.440719 0,50.140179 h -33.36097 z"
         style="fill:#afc6e9;fill-opacity:1;stroke:#7a7a7a;stroke-width:0.84125;stroke-linecap:butt;stroke-linejoin:miter;stroke-miterlimit:4;stroke-dasharray:none;stroke-opacity:1;filter:url(#filter4290-5)" />
      <path
         sodipodi:nodetypes="ccccccccccccc"
         inkscape:connector-curvature="0"
         id="path3009-4-2"
         d="m 509.86495,73.657811 c 33.66152,25.24614 24.6513,75.738429 3.61285,84.304079 l 42.48682,54.5497 h 33.36097 V 166.227 h 21.03845 c 44.40322,-2.34664 50.49227,-88.361499 -4.20769,-92.569189 z m 54.21451,20.65613 h 29.45382 c 25.24614,0.38232 25.24614,50.874609 0,50.874609 h -29.45382 z"
         style="fill:#d7e3f4;fill-opacity:1;stroke:#828282;stroke-width:0.84125;stroke-linecap:butt;stroke-linejoin:miter;stroke-miterlimit:4;stroke-dasharray:none;stroke-opacity:1;filter:url(#filter4290-5)" />
      <g
         id="g4372-8-7"
         transform="matrix(0.84153791,0,0,0.84153791,94.049663,-106.48038)"
         style="fill:#a02c2c;fill-opacity:1"
         inkscape:export-filename="C:\Users\Mohammad\Desktop\cs33.png"
         inkscape:export-xdpi="42.582573"
         inkscape:export-ydpi="42.582573">
        <path
           style="fill:#a02c2c;fill-opacity:0.992157;stroke:#636363;stroke-width:0.742688;stroke-linecap:butt;stroke-linejoin:miter;stroke-miterlimit:4;stroke-dasharray:none;stroke-opacity:1"
           d="m 364.66272,389.76417 c 15,9.99999 14.57561,29.99999 -0.42439,39.99999 l 233.30243,-5.09272 14.13858,-32.49154 12.2472,12.6779 19.36796,-46.54728 10.71681,6.95826 c 0.95919,-18.54527 0.13236,-31.47046 0.7614,-48.78177 -10.68599,12.19419 -19.11573,19.5822 -33.81967,24.84135 l 10.18791,8.48264 -14.63014,25.21535 -6.98503,-8.53934 -16.11752,23.17308 z"
           id="path3013-51-4"
           inkscape:connector-curvature="0"
           sodipodi:nodetypes="cccccccccccccc"
           inkscape:export-filename="C:\Program Files\Creative Solutions\cse\images\cs.png"
           inkscape:export-xdpi="48.661221"
           inkscape:export-ydpi="48.661221" />
      </g>
    </g>
  </g>
</svg>
